<svg width="32" height="32" viewBox="0 0 32 32" fill="none" xmlns="http://www.w3.org/2000/svg">
<path d="M11 17C9.895 17 9 16.105 9 15V2H2C0.895 2 0 2.895 0 4V30C0 31.105 0.895 32 2 32H18C19.105 32 20 31.105 20 30V17H11ZM10 28C8.895 28 8 27.105 8 26C8 24.895 8.895 24 10 24C11.105 24 12 24.895 12 26C12 27.105 11.105 28 10 28Z" fill="#2A338F"/>
<path d="M31 0H12C11.448 0 11 0.448 11 1V14C11 14.552 11.448 15 12 15H31C31.552 15 32 14.552 32 14V1C32 0.448 31.552 0 31 0ZM30 2V4H13V2H30ZM13 13V7H30V13H13Z" fill="#EF5FA2"/>
<path d="M20 9H15V11H20V9Z" fill="#2A338F"/>
<path d="M28 9H26V11H28V9Z" fill="#2A338F"/>
</svg>
