<svg width="32" height="32" viewBox="0 0 32 32" fill="none" xmlns="http://www.w3.org/2000/svg">
<path d="M10 3C10 1.895 9.105 1 8 1C6.895 1 6 1.895 6 3V5H10V3Z" fill="#EF5FA2"/>
<path d="M15 3C15 1.895 14.105 1 13 1C11.895 1 11 1.895 11 3V5H15V3Z" fill="#EF5FA2"/>
<path d="M20 2C20 0.895 19.105 0 18 0C16.895 0 16 0.895 16 2V5H20V2Z" fill="#EF5FA2"/>
<path d="M25 3C25 1.895 24.105 1 23 1C21.895 1 21 1.895 21 3V5H25V3Z" fill="#EF5FA2"/>
<path d="M16 17C17.6569 17 19 15.6569 19 14C19 12.3431 17.6569 11 16 11C14.3431 11 13 12.3431 13 14C13 15.6569 14.3431 17 16 17Z" fill="#EF5FA2"/>
<path d="M31 6H1C0.447 6 0 6.448 0 7V21C0 21.552 0.447 22 1 22H6.025C6.288 27.565 10.87 32 16.5 32C22.13 32 26.712 27.565 26.975 22H31C31.553 22 32 21.552 32 21V7C32 6.448 31.553 6 31 6ZM30 20H27V11C24.239 11 22 13.239 22 16V19C20.732 19 19.495 19.371 18.474 20C16.406 21.438 15.718 23.719 15.718 23.719C15.718 23.719 15.214 22.319 15.685 20H2V8H30V20Z" fill="#2A338F"/>
</svg>
