<svg width="43" height="43" viewBox="0 0 43 43" fill="none" xmlns="http://www.w3.org/2000/svg">
<path d="M12.4349 32.2343C12.6224 32.0468 12.8767 31.9414 13.142 31.9414C13.4072 31.9414 13.6615 32.0468 13.8491 32.2343C15.9137 34.294 18.7109 35.4508 21.6272 35.4508C24.5436 35.4508 27.3408 34.294 29.4054 32.2343C29.5929 32.0468 29.8473 31.9414 30.1125 31.9414C30.3777 31.9414 30.6321 32.0468 30.8196 32.2343C31.0072 32.4218 31.1125 32.6762 31.1125 32.9414C31.1125 33.2066 31.0072 33.461 30.8196 33.6485C28.3797 36.0828 25.0738 37.4499 21.6272 37.4499C18.1806 37.4499 14.8748 36.0828 12.4349 33.6485C12.2473 33.461 12.142 33.2066 12.142 32.9414C12.142 32.6762 12.2473 32.4218 12.4349 32.2343Z" fill="#EF5FA2"/>
<path d="M16.6775 27.9921C16.865 27.8046 17.1194 27.6992 17.3846 27.6992C17.6498 27.6992 17.9042 27.8046 18.0917 27.9921C19.0302 28.9283 20.3016 29.4541 21.6272 29.4541C22.9528 29.4541 24.2243 28.9283 25.1628 27.9921C25.3503 27.8046 25.6047 27.6992 25.8699 27.6992C26.1351 27.6992 26.3894 27.8046 26.577 27.9921C26.7645 28.1796 26.8699 28.434 26.8699 28.6992C26.8699 28.9644 26.7645 29.2188 26.577 29.4063C25.2632 30.7171 23.4831 31.4533 21.6272 31.4533C19.7714 31.4533 17.9913 30.7171 16.6775 29.4063C16.49 29.2188 16.3846 28.9644 16.3846 28.6992C16.3846 28.434 16.49 28.1796 16.6775 27.9921Z" fill="#EF5FA2"/>
<path d="M15.5772 22.6884L15.1445 18.7979C19.3959 17.6942 23.8586 17.6942 28.11 18.7979L27.6772 22.6884C27.627 23.1443 27.729 23.6041 27.9674 23.996C28.2059 24.3879 28.5673 24.6899 28.9953 24.8549L35.401 27.3206C35.8603 27.4979 36.3678 27.5061 36.8326 27.3438C37.2975 27.1815 37.6895 26.8593 37.9388 26.4346L40.7135 21.714C40.9731 21.2728 41.0617 20.7517 40.9624 20.2495C40.863 19.7474 40.5827 19.2992 40.1746 18.9902C34.8302 14.962 28.3197 12.7833 21.6272 12.7833C14.9348 12.7833 8.42424 14.962 3.07982 18.9902C2.67224 19.2989 2.39211 19.7465 2.29254 20.248C2.19296 20.7495 2.28087 21.2701 2.53959 21.7111L5.31428 26.4318C5.56369 26.8557 5.95543 27.1773 6.41977 27.3394C6.88411 27.5015 7.39092 27.4936 7.84996 27.3171L14.2578 24.8535C14.6859 24.689 15.0475 24.3873 15.2862 23.9956C15.5249 23.604 15.6272 23.1443 15.5772 22.6884Z" fill="#2A338F"/>
</svg>
