<svg width="94" height="89" viewBox="0 0 94 89" fill="none" xmlns="http://www.w3.org/2000/svg">
<path d="M62 85.9731H54.5V78.4731H39.5V85.9731H32C31.1705 85.9731 30.5 86.6436 30.5 87.4731C30.5 88.3026 31.1705 88.9731 32 88.9731H62C62.8295 88.9731 63.5 88.3026 63.5 87.4731C63.5 86.6436 62.8295 85.9731 62 85.9731Z" fill="#EF5FA2"/>
<path d="M6.5 72.4727H2C1.1705 72.4727 0.5 71.8021 0.5 70.9726V10.9688C0.5 10.1393 1.1705 9.46875 2 9.46875H45.5V12.4689H3.5V69.4725H6.5V72.4727Z" fill="#EF5FA2"/>
<path d="M92 72.4727H36.5V69.4725H90.5V12.4689H87.5V9.46875H92C92.8295 9.46875 93.5 10.1393 93.5 10.9688V70.9726C93.5 71.8021 92.8295 72.4727 92 72.4727Z" fill="#EF5FA2"/>
<path d="M30.5 42.4712H12.5C10.8455 42.4712 9.5 43.8168 9.5 45.4713V78.473C9.5 80.1276 10.8455 81.4731 12.5 81.4731H30.5C32.1545 81.4731 33.5 80.1276 33.5 78.473V45.4713C33.5 43.8168 32.1545 42.4712 30.5 42.4712ZM21.5 76.9729C19.8425 76.9729 18.5 75.6304 18.5 73.9728C18.5 72.3152 19.8425 70.9726 21.5 70.9726C23.1575 70.9726 24.5 72.3152 24.5 73.9728C24.5 75.6304 23.1575 76.9729 21.5 76.9729Z" fill="#EF5FA2"/>
<path d="M81.5 0.46875H51.5C49.8455 0.46875 48.5 1.81432 48.5 3.4689V45.471C48.5 47.1256 49.8455 48.4712 51.5 48.4712H81.5C83.1545 48.4712 84.5 47.1256 84.5 45.471V3.4689C84.5 1.81432 83.1545 0.46875 81.5 0.46875ZM66.5 42.4709C64.8425 42.4709 63.5 41.1283 63.5 39.4707C63.5 37.8131 64.8425 36.4706 66.5 36.4706C68.1575 36.4706 69.5 37.8131 69.5 39.4707C69.5 41.1283 68.1575 42.4709 66.5 42.4709Z" fill="#EF5FA2"/>
</svg>
