<svg width="24" height="25" viewBox="0 0 24 25" fill="none" xmlns="http://www.w3.org/2000/svg">
<path d="M12 0.333008C5.383 0.333008 0 5.71601 0 12.333C0 18.95 5.383 24.333 12 24.333C18.617 24.333 24 18.95 24 12.333C24 5.71601 18.617 0.333008 12 0.333008ZM5 12.333C5 12.885 4.553 13.333 4 13.333C3.447 13.333 3 12.885 3 12.333C3 10.946 3.325 9.63701 3.887 8.46201L5.413 9.98801C5.15 10.722 5 11.51 5 12.333ZM12 15.333C10.346 15.333 9 13.987 9 12.333C9 11.871 9.113 11.439 9.3 11.048L5.086 6.83301L6.5 5.41901L10.714 9.63401C11.106 9.44701 11.538 9.33301 12 9.33301C13.654 9.33301 15 10.679 15 12.333C15 13.987 13.654 15.333 12 15.333ZM20 13.333C19.447 13.333 19 12.885 19 12.333C19 8.47301 15.859 5.33301 12 5.33301C11.177 5.33301 10.39 5.48301 9.655 5.74601L8.13 4.22001C9.304 3.65701 10.613 3.33301 12 3.33301C16.963 3.33301 21 7.37101 21 12.333C21 12.885 20.553 13.333 20 13.333Z" fill="#DADAE0"/>
</svg>
