<svg width="30" height="32" viewBox="0 0 30 32" fill="none" xmlns="http://www.w3.org/2000/svg">
<path d="M22.517 22.6084C22.054 23.2404 21.591 23.8454 21.142 24.4154C25.672 25.0744 28 26.3514 28 27.0004C28 27.8974 23.577 30.0004 15 30.0004C6.423 30.0004 2 27.8974 2 27.0004C2 26.3514 4.328 25.0744 8.858 24.4164C8.409 23.8464 7.946 23.2414 7.483 22.6094C3.244 23.3494 0 24.7834 0 27.0004C0 30.4364 7.775 32.0004 15 32.0004C22.225 32.0004 30 30.4364 30 27.0004C30 24.7834 26.756 23.3494 22.517 22.6084Z" fill="#EF5FA2"/>
<path d="M15 0C9.593 0 4 3.944 4 10.545C4 16.764 13.855 27.211 14.275 27.652C14.463 27.851 14.725 27.963 15 27.963C15.275 27.963 15.536 27.851 15.725 27.652C16.145 27.211 26 16.765 26 10.545C26 3.944 20.407 0 15 0ZM15 15C12.791 15 11 13.209 11 11C11 8.791 12.791 7 15 7C17.209 7 19 8.791 19 11C19 13.209 17.209 15 15 15Z" fill="#2A338F"/>
</svg>
