<svg width="32" height="32" viewBox="0 0 32 32" fill="none" xmlns="http://www.w3.org/2000/svg">
<path d="M14 17C18.579 17 22 12.249 22 8C22 3.589 18.411 0 14 0C9.589 0 6 3.589 6 8C6 12.249 9.421 17 14 17Z" fill="#2A338F"/>
<path d="M20 21.171V21C20 20.492 20.07 20.001 20.19 19.53C18.441 19.215 16.397 19 14 19C8.353 19 4.558 20.158 2.368 21.129C0.93 21.767 0 23.201 0 24.783V30C0 30.552 0.448 31 1 31H18V24C18 22.696 18.836 21.584 20 21.171Z" fill="#2A338F"/>
<path d="M31 23H30V21C30 18.794 28.206 17 26 17C23.794 17 22 18.794 22 21V23H21C20.448 23 20 23.448 20 24V31C20 31.552 20.448 32 21 32H31C31.552 32 32 31.552 32 31V24C32 23.448 31.552 23 31 23ZM24 21C24 19.897 24.897 19 26 19C27.103 19 28 19.897 28 21V23H24V21Z" fill="#EF5FA2"/>
</svg>
