<svg width="32" height="32" viewBox="0 0 32 32" fill="none" xmlns="http://www.w3.org/2000/svg">
<path d="M7.00001 15.9V11V2H25V11V15.9L30.8 12.7L27 10.4V1C27 0.4 26.6 0 26 0H6.00001C5.40001 0 5.00001 0.4 5.00001 1V10.4L1.20001 12.6L7.00001 15.9Z" fill="#2A338F"/>
<path d="M16.5 22.8998C16.3 22.9998 16.2 22.9998 16 22.9998C15.8 22.9998 15.7 22.9998 15.5 22.8998L0 14.2998V30.9998C0 31.5998 0.4 31.9998 1 31.9998H31C31.6 31.9998 32 31.5998 32 30.9998V14.2998L16.5 22.8998Z" fill="#2A338F"/>
<path d="M22 6H10V8H22V6Z" fill="#EF5FA2"/>
<path d="M22 11H10V13H22V11Z" fill="#EF5FA2"/>
</svg>
